<svg width="96" height="96" viewBox="0 0 96 96" fill="none" xmlns="http://www.w3.org/2000/svg">
<rect width="96" height="96" fill="white"/>
<path d="M48 96C74.5097 96 96 74.5097 96 48C96 21.4903 74.5097 0 48 0C21.4903 0 0 21.4903 0 48C0 74.5097 21.4903 96 48 96Z" fill="url(#paint0_linear)"/>
<path d="M63.6888 81.24V24.6192C63.6872 22.9877 63.0383 21.4234 61.8847 20.2697C60.731 19.116 59.1667 18.4672 57.5352 18.4656H53.2152V81.24H42.7883V24.6192C42.7864 22.9878 42.1375 21.4237 40.9839 20.2701C39.8303 19.1165 38.2662 18.4675 36.6347 18.4656H32.3147V81.24H21.8879V14.76H62.328C65.452 14.7638 68.447 16.0066 70.6559 18.2157C72.8648 20.4249 74.1073 23.42 74.1108 26.544V81.24H63.6888Z" fill="url(#paint1_linear)"/>
<path d="M62.3292 15.12C63.8293 15.12 65.3148 15.4155 66.7008 15.9896C68.0867 16.5638 69.346 17.4053 70.4067 18.4661C71.4675 19.5269 72.3088 20.7863 72.8828 22.1723C73.4568 23.5584 73.7521 25.0439 73.752 26.544V80.88H64.0488V24.6192C64.0488 22.8917 63.3625 21.235 62.141 20.0134C60.9194 18.7919 59.2627 18.1056 57.5352 18.1056H52.8552V80.88H43.1484V24.6192C43.1484 22.8917 42.4621 21.235 41.2406 20.0134C40.019 18.7919 38.3623 18.1056 36.6348 18.1056H31.9548V80.88H22.248V15.12H62.328H62.3292ZM62.328 14.4H21.528V81.6H32.6712V18.8256H36.6312C38.1671 18.8275 39.6397 19.4385 40.7258 20.5246C41.8119 21.6107 42.4229 23.0833 42.4248 24.6192V81.6H53.568V18.8256H57.528C59.0639 18.8275 60.5365 19.4385 61.6226 20.5246C62.7087 21.6107 63.3197 23.0833 63.3216 24.6192V81.6H74.472V26.544C74.4685 23.3245 73.1881 20.2379 70.9116 17.9612C68.6352 15.6846 65.5487 14.4038 62.3292 14.4H62.328Z" fill="white"/>
<path d="M72.5448 20.1887C69.6432 20.7263 64.53 22.7291 57.6732 28.7543C55.2468 30.888 52.1263 32.0649 48.8952 32.0651H48.7944C46.9974 32.0642 45.2415 32.6031 43.7544 33.6119L43.17 34.0079C43.0401 34.0962 42.9295 34.2101 42.8453 34.3427C42.761 34.4753 42.7047 34.6237 42.68 34.7789C42.6553 34.934 42.6626 35.0926 42.7014 35.2448C42.7403 35.397 42.8099 35.5397 42.906 35.6639L46.7016 40.5695C46.3966 40.9889 46.2082 41.4816 46.1556 41.9975V41.9975C46.4364 42.4999 46.7388 42.9847 47.0628 43.4519L46.92 43.6043C46.7934 43.731 46.7115 43.8953 46.6866 44.0727C46.6617 44.25 46.6952 44.4306 46.782 44.5871C45.942 47.2067 44.118 49.2803 42.1644 51.2351C30.7752 62.6231 18.4044 69.3107 7.14124 73.1951C10.9442 79.3486 16.0821 84.5681 22.1748 88.4675C26.0148 76.5587 32.5296 63.6107 43.5348 52.6079C45.48 50.6615 47.5416 48.8399 50.1444 47.9999L50.2452 48.1007C50.4002 48.2553 50.6102 48.3421 50.829 48.3421C51.0479 48.3421 51.2578 48.2553 51.4128 48.1007L51.5616 47.9519C52.0308 48.2747 52.5156 48.5795 53.0196 48.8615C53.5401 48.8094 54.0372 48.6193 54.4596 48.3107L59.3712 52.0991C59.495 52.1947 59.6369 52.2639 59.7884 52.3027C59.9398 52.3415 60.0976 52.349 60.252 52.3248C60.4065 52.3005 60.5543 52.245 60.6866 52.1616C60.8189 52.0783 60.9327 51.9688 61.0212 51.8399L61.4088 51.2663C62.4156 49.7807 62.9531 48.027 62.952 46.2323V46.1267C62.9523 42.8956 64.1292 39.7752 66.2628 37.3487C72.288 30.4919 74.2908 25.3787 74.8272 22.4771C74.8868 22.1642 74.8691 21.8415 74.7756 21.537C74.6821 21.2325 74.5156 20.9554 74.2907 20.7299C74.0658 20.5043 73.7891 20.3371 73.4849 20.2428C73.1806 20.1485 72.8579 20.13 72.5448 20.1887Z" fill="white"/>
<path opacity="0.27" d="M50.1456 48L50.2452 48.1008C50.4002 48.2554 50.6101 48.3422 50.829 48.3422C51.0479 48.3422 51.2578 48.2554 51.4128 48.1008L51.5616 47.952C52.0308 48.2748 52.5156 48.5796 53.0196 48.8616C53.5401 48.8097 54.0373 48.6196 54.4596 48.3108L59.3712 52.0992C59.4949 52.1947 59.6369 52.264 59.7883 52.3028C59.9398 52.3416 60.0975 52.3491 60.252 52.3248C60.4064 52.3006 60.5543 52.2451 60.6865 52.1617C60.8188 52.0783 60.9327 51.9689 61.0212 51.84L61.41 51.2664C62.4158 49.7804 62.9529 48.0269 62.952 46.2324V46.1268C62.9522 42.8957 64.1292 39.7753 66.2628 37.3488C72.288 30.492 74.2908 25.3788 74.8284 22.4772C74.8814 22.196 74.8718 21.9065 74.8002 21.6294C74.7287 21.3523 74.5969 21.0944 74.4144 20.874L13.23 81.09C15.9045 83.9 18.9082 86.3771 22.176 88.4676C26.016 76.5588 32.5296 63.6108 43.536 52.608C45.48 50.6616 47.5416 48.84 50.1456 48Z" fill="url(#paint2_linear)"/>
<defs>
<linearGradient id="paint0_linear" x1="0" y1="48" x2="96" y2="48" gradientUnits="userSpaceOnUse">
<stop stop-color="#F5AF19"/>
<stop offset="1" stop-color="#F12711"/>
</linearGradient>
<linearGradient id="paint1_linear" x1="48" y1="81.24" x2="48" y2="14.76" gradientUnits="userSpaceOnUse">
<stop stop-color="#F18316"/>
<stop offset="1" stop-color="#F03A12"/>
</linearGradient>
<linearGradient id="paint2_linear" x1="6808.17" y1="30814.5" x2="38462.4" y2="30814.5" gradientUnits="userSpaceOnUse">
<stop stop-color="#F18316"/>
<stop offset="1" stop-color="#F03A12"/>
</linearGradient>
</defs>
</svg>
